<svg width="653" height="653" viewBox="0 0 653 653" fill="none" xmlns="http://www.w3.org/2000/svg">
<path d="M313.559 2.46752C322.037 0.195909 330.963 0.195906 339.441 2.46752L477.309 39.4092C485.787 41.6808 493.517 46.144 499.723 52.3501L600.65 153.277C606.856 159.483 611.319 167.213 613.591 175.691L650.532 313.559C652.804 322.037 652.804 330.963 650.532 339.441L613.591 477.309C611.319 485.787 606.856 493.517 600.65 499.723L499.723 600.65C493.517 606.856 485.787 611.319 477.309 613.591L339.441 650.532C330.963 652.804 322.037 652.804 313.559 650.532L175.691 613.591C167.213 611.319 159.483 606.856 153.277 600.65L52.3501 499.723C46.144 493.517 41.6808 485.787 39.4092 477.309L2.46752 339.441C0.195909 330.963 0.195906 322.037 2.46752 313.559L39.4092 175.691C41.6808 167.213 46.144 159.483 52.3501 153.277L153.277 52.3501C159.483 46.144 167.213 41.6808 175.691 39.4092L313.559 2.46752Z" fill="#F8F8F8"/>
</svg>
