<svg width="701" height="738" viewBox="0 0 701 738" fill="none" xmlns="http://www.w3.org/2000/svg">
<path d="M439.719 -267.803C465.968 -275.191 493.441 -277.188 520.482 -273.674L934.305 -219.893C980.205 -213.928 1022.66 -192.38 1054.58 -158.856L1146.57 -62.2198C1170.43 -37.1604 1187.45 -6.39368 1196 27.1314L1235.26 181.073C1243.62 213.833 1243.62 248.167 1235.26 280.927L1196 434.869C1187.45 468.394 1170.43 499.16 1146.57 524.22L1054.58 620.856C1022.66 654.38 980.205 675.928 934.305 681.893L520.482 735.674C493.441 739.188 465.968 737.191 439.719 729.803L290.107 687.691C255.181 677.861 223.548 658.805 198.531 632.525L95.4284 524.22C71.5728 499.16 54.5537 468.394 46.0022 434.869L6.73522 280.927C-1.62114 248.167 -1.62114 213.833 6.73522 181.073L46.0022 27.1314C54.5537 -6.39368 71.5728 -37.1604 95.4284 -62.2198L198.531 -170.525C223.548 -196.805 255.181 -215.861 290.107 -225.691L439.719 -267.803Z" fill="#833323"/>
</svg>
