<svg width="852" height="962" viewBox="0 0 852 962" fill="none" xmlns="http://www.w3.org/2000/svg">
<path opacity="0.14" d="M409.781 -147.251C420.28 -150.934 431.72 -150.934 442.219 -147.251L625.061 -83.1134C634.081 -79.9494 641.978 -74.2162 647.781 -66.62L788.045 117.004C792.529 122.875 795.629 129.685 797.11 136.923L849.968 395.174C851.295 401.658 851.295 408.342 849.968 414.826L797.11 673.077C795.629 680.315 792.529 687.125 788.045 692.996L647.781 876.62C641.978 884.216 634.081 889.949 625.061 893.113L442.219 957.251C431.72 960.934 420.28 960.934 409.781 957.251L226.939 893.113C217.919 889.949 210.022 884.216 204.219 876.62L63.9553 692.996C59.4705 687.125 56.3714 680.315 54.8899 673.077L2.03178 414.826C0.704834 408.342 0.704834 401.658 2.03178 395.174L54.8899 136.923C56.3714 129.685 59.4705 122.875 63.9553 117.004L204.219 -66.62C210.022 -74.2162 217.919 -79.9494 226.939 -83.1134L409.781 -147.251Z" stroke="white" stroke-width="2"/>
</svg>
